<svg width="57" height="52" viewBox="0 0 57 52" fill="none" xmlns="http://www.w3.org/2000/svg">
<path d="M5.24219 48.6562V8.79687H15.5078V12.5H9.71094V44.9531H15.5078V48.6562H5.24219ZM51.7539 8.79687V48.6562H41.4883V44.9531H47.2852V12.5H41.4883V8.79687H51.7539Z" fill="#F97316"/>
<g clip-path="url(#clip0_5216_9634)">
<path d="M29.6673 17C23.414 17 18.334 20.5867 18.334 25C18.334 26.5867 19.0007 28.12 20.254 29.44C19.0139 31.0285 18.3383 32.9848 18.334 35V39.6667C18.334 41.1467 19.5207 42.3333 21.0007 42.3333H38.334C39.814 42.3333 41.0007 41.1467 41.0007 39.6667V35C41.0007 33.3733 40.5473 31.76 39.6673 30.3333L42.334 27.6667L38.334 23.6667L35.534 26.4667C33.7315 25.4959 31.7146 24.9917 29.6673 25C27.2007 25 24.934 25.7067 23.0673 26.88C22.5873 26.2933 22.334 25.6667 22.334 25C22.334 22.6133 25.614 20.6667 29.6673 20.6667C31.574 20.6667 33.4007 21.1067 34.774 21.8933L37.4673 19.2C35.3607 17.7867 32.574 17 29.6673 17ZM29.6673 27.6667C30.1207 27.6667 30.5607 27.72 31.0007 27.7867C26.854 28.4267 23.6673 32 23.6673 36.3333V39.6667H21.0007V36.3333C21.0007 34.0348 21.9137 31.8304 23.5391 30.2051C25.1644 28.5798 27.3688 27.6667 29.6673 27.6667Z" fill="#484141"/>
</g>
<defs>
<clipPath id="clip0_5216_9634">
<rect width="32" height="32" fill="white" transform="translate(13 10)"/>
</clipPath>
</defs>
</svg>
