<svg width="40" height="38" viewBox="0 0 40 38" fill="none" xmlns="http://www.w3.org/2000/svg">
<path d="M3.71953 34.1594V6.25781H10.9055V8.85H6.84766V31.5672H10.9055V34.1594H3.71953ZM36.2777 6.25781V34.1594H29.0918V31.5672H33.1496V8.85H29.0918V6.25781H36.2777Z" fill="#00AEFF"/>
<g clip-path="url(#clip0_7728_8354)">
<path d="M21.7663 12.4004C17.389 12.4004 13.833 14.9111 13.833 18.0004C13.833 19.1111 14.2997 20.1844 15.177 21.1084C14.3089 22.2203 13.836 23.5897 13.833 25.0004V28.2671C13.833 29.3031 14.6637 30.1337 15.6997 30.1337H27.833C28.869 30.1337 29.6997 29.3031 29.6997 28.2671V25.0004C29.6997 23.8617 29.3823 22.7324 28.7663 21.7337L30.633 19.8671L27.833 17.0671L25.873 19.0271C24.6112 18.3475 23.1995 17.9945 21.7663 18.0004C20.0397 18.0004 18.453 18.4951 17.1463 19.3164C16.8103 18.9057 16.633 18.4671 16.633 18.0004C16.633 16.3297 18.929 14.9671 21.7663 14.9671C23.101 14.9671 24.3797 15.2751 25.341 15.8257L27.2263 13.9404C25.7517 12.9511 23.801 12.4004 21.7663 12.4004ZM21.7663 19.8671C22.0837 19.8671 22.3917 19.9044 22.6997 19.9511C19.797 20.3991 17.5663 22.9004 17.5663 25.9337V28.2671H15.6997V25.9337C15.6997 24.3247 16.3388 22.7817 17.4766 21.6439C18.6143 20.5062 20.1574 19.8671 21.7663 19.8671Z" fill="#484141"/>
</g>
<defs>
<clipPath id="clip0_7728_8354">
<rect width="22.4" height="22.4" fill="white" transform="translate(10.0996 7.5)"/>
</clipPath>
</defs>
</svg>
