<svg width="40" height="40" viewBox="0 0 40 40" fill="none" xmlns="http://www.w3.org/2000/svg">
<rect width="40" height="40" rx="20" fill="#F97316"/>
<path d="M17.1997 13.333H22.7997C24.933 13.333 26.6663 15.0663 26.6663 17.1997V22.7997C26.6663 23.8252 26.259 24.8087 25.5338 25.5338C24.8087 26.259 23.8252 26.6663 22.7997 26.6663H17.1997C15.0663 26.6663 13.333 24.933 13.333 22.7997V17.1997C13.333 16.1742 13.7404 15.1907 14.4655 14.4655C15.1907 13.7404 16.1742 13.333 17.1997 13.333ZM17.0663 14.6663C16.4298 14.6663 15.8194 14.9192 15.3693 15.3693C14.9192 15.8194 14.6663 16.4298 14.6663 17.0663V22.933C14.6663 24.2597 15.7397 25.333 17.0663 25.333H22.933C23.5695 25.333 24.18 25.0802 24.6301 24.6301C25.0802 24.18 25.333 23.5695 25.333 22.933V17.0663C25.333 15.7397 24.2597 14.6663 22.933 14.6663H17.0663ZM23.4997 15.6663C23.7207 15.6663 23.9327 15.7541 24.0889 15.9104C24.2452 16.0667 24.333 16.2787 24.333 16.4997C24.333 16.7207 24.2452 16.9327 24.0889 17.0889C23.9327 17.2452 23.7207 17.333 23.4997 17.333C23.2787 17.333 23.0667 17.2452 22.9104 17.0889C22.7541 16.9327 22.6663 16.7207 22.6663 16.4997C22.6663 16.2787 22.7541 16.0667 22.9104 15.9104C23.0667 15.7541 23.2787 15.6663 23.4997 15.6663ZM19.9997 16.6663C20.8837 16.6663 21.7316 17.0175 22.3567 17.6427C22.9818 18.2678 23.333 19.1156 23.333 19.9997C23.333 20.8837 22.9818 21.7316 22.3567 22.3567C21.7316 22.9818 20.8837 23.333 19.9997 23.333C19.1156 23.333 18.2678 22.9818 17.6427 22.3567C17.0175 21.7316 16.6663 20.8837 16.6663 19.9997C16.6663 19.1156 17.0175 18.2678 17.6427 17.6427C18.2678 17.0175 19.1156 16.6663 19.9997 16.6663ZM19.9997 17.9997C19.4692 17.9997 18.9605 18.2104 18.5855 18.5855C18.2104 18.9605 17.9997 19.4692 17.9997 19.9997C17.9997 20.5301 18.2104 21.0388 18.5855 21.4139C18.9605 21.789 19.4692 21.9997 19.9997 21.9997C20.5301 21.9997 21.0388 21.789 21.4139 21.4139C21.789 21.0388 21.9997 20.5301 21.9997 19.9997C21.9997 19.4692 21.789 18.9605 21.4139 18.5855C21.0388 18.2104 20.5301 17.9997 19.9997 17.9997Z" fill="#FAFAFA"/>
</svg>
