<svg width="22" height="21" viewBox="0 0 22 21" fill="none" xmlns="http://www.w3.org/2000/svg">
<rect x="0.647461" width="20.8235" height="20.8235" rx="10.4118" fill="#F97316"/>
<path d="M8.43457 4.16162H13.6846C15.6846 4.16162 17.3096 5.78662 17.3096 7.78662V13.0366C17.3096 13.998 16.9277 14.9201 16.2478 15.5999C15.568 16.2797 14.646 16.6616 13.6846 16.6616H8.43457C6.43457 16.6616 4.80957 15.0366 4.80957 13.0366V7.78662C4.80957 6.82521 5.19149 5.90318 5.87131 5.22336C6.55113 4.54354 7.47316 4.16162 8.43457 4.16162ZM8.30957 5.41162C7.71283 5.41162 7.14054 5.64867 6.71858 6.07063C6.29662 6.49259 6.05957 7.06488 6.05957 7.66162V13.1616C6.05957 14.4054 7.06582 15.4116 8.30957 15.4116H13.8096C14.4063 15.4116 14.9786 15.1746 15.4006 14.7526C15.8225 14.3307 16.0596 13.7584 16.0596 13.1616V7.66162C16.0596 6.41787 15.0533 5.41162 13.8096 5.41162H8.30957ZM14.3408 6.34912C14.548 6.34912 14.7467 6.43143 14.8932 6.57794C15.0398 6.72446 15.1221 6.92317 15.1221 7.13037C15.1221 7.33757 15.0398 7.53629 14.8932 7.6828C14.7467 7.82931 14.548 7.91162 14.3408 7.91162C14.1336 7.91162 13.9349 7.82931 13.7884 7.6828C13.6419 7.53629 13.5596 7.33757 13.5596 7.13037C13.5596 6.92317 13.6419 6.72446 13.7884 6.57794C13.9349 6.43143 14.1336 6.34912 14.3408 6.34912ZM11.0596 7.28662C11.8884 7.28662 12.6832 7.61586 13.2693 8.20191C13.8553 8.78796 14.1846 9.58282 14.1846 10.4116C14.1846 11.2404 13.8553 12.0353 13.2693 12.6213C12.6832 13.2074 11.8884 13.5366 11.0596 13.5366C10.2308 13.5366 9.43591 13.2074 8.84986 12.6213C8.26381 12.0353 7.93457 11.2404 7.93457 10.4116C7.93457 9.58282 8.26381 8.78796 8.84986 8.20191C9.43591 7.61586 10.2308 7.28662 11.0596 7.28662ZM11.0596 8.53662C10.5623 8.53662 10.0854 8.73417 9.73375 9.0858C9.38211 9.43743 9.18457 9.91434 9.18457 10.4116C9.18457 10.9089 9.38211 11.3858 9.73375 11.7374C10.0854 12.0891 10.5623 12.2866 11.0596 12.2866C11.5569 12.2866 12.0338 12.0891 12.3854 11.7374C12.737 11.3858 12.9346 10.9089 12.9346 10.4116C12.9346 9.91434 12.737 9.43743 12.3854 9.0858C12.0338 8.73417 11.5569 8.53662 11.0596 8.53662Z" fill="#0A0A0A"/>
</svg>
