<svg width="22" height="21" viewBox="0 0 22 21" fill="none" xmlns="http://www.w3.org/2000/svg">
<rect x="0.470703" width="20.8235" height="20.8235" rx="10.4118" fill="#F97316"/>
<path d="M7.11104 5.35671C7.11086 5.73978 6.96697 6.10708 6.71102 6.37782C6.45507 6.64855 6.10803 6.80054 5.74624 6.80035C5.38446 6.80016 5.03756 6.6478 4.78187 6.37679C4.52618 6.10579 4.38263 5.73833 4.38281 5.35526C4.38299 4.97219 4.52689 4.60489 4.78283 4.33415C5.03878 4.06342 5.38582 3.91143 5.74761 3.91162C6.10939 3.91181 6.45629 4.06417 6.71198 4.33518C6.96768 4.60618 7.11122 4.97364 7.11104 5.35671ZM7.15196 7.8699H4.42374V16.9116H7.15196V7.8699ZM11.4626 7.8699H8.74798V16.9116H11.4353V12.1669C11.4353 9.5237 14.6887 9.27816 14.6887 12.1669V16.9116H17.3828V11.1847C17.3828 6.72885 12.5675 6.89496 11.4353 9.08317L11.4626 7.8699Z" fill="#0A0A0A"/>
</svg>
