<svg width="22" height="21" viewBox="0 0 22 21" fill="none" xmlns="http://www.w3.org/2000/svg">
<rect x="0.823242" width="20.8235" height="20.8235" rx="10.4118" fill="#F97316"/>
<path d="M10.2354 11.9116L12.8304 10.4116L10.2354 8.91162V11.9116ZM16.0154 7.99662C16.0804 8.23162 16.1254 8.54662 16.1554 8.94662C16.1904 9.34662 16.2054 9.69162 16.2054 9.99162L16.2354 10.4116C16.2354 11.5066 16.1554 12.3116 16.0154 12.8266C15.8904 13.2766 15.6004 13.5666 15.1504 13.6916C14.9154 13.7566 14.4854 13.8016 13.8254 13.8316C13.1754 13.8666 12.5804 13.8816 12.0304 13.8816L11.2354 13.9116C9.14035 13.9116 7.83535 13.8316 7.32035 13.6916C6.87035 13.5666 6.58035 13.2766 6.45535 12.8266C6.39035 12.5916 6.34535 12.2766 6.31535 11.8766C6.28035 11.4766 6.26535 11.1316 6.26535 10.8316L6.23535 10.4116C6.23535 9.31662 6.31535 8.51162 6.45535 7.99662C6.58035 7.54662 6.87035 7.25662 7.32035 7.13162C7.55535 7.06662 7.98535 7.02162 8.64535 6.99162C9.29535 6.95662 9.89035 6.94162 10.4404 6.94162L11.2354 6.91162C13.3304 6.91162 14.6354 6.99162 15.1504 7.13162C15.6004 7.25662 15.8904 7.54662 16.0154 7.99662Z" fill="#0A0A0A"/>
</svg>
