<svg width="30" height="31" viewBox="0 0 30 31" fill="none" xmlns="http://www.w3.org/2000/svg">
<path d="M3.75 15.5C3.75 16.9774 4.04099 18.4403 4.60636 19.8052C5.17172 21.1701 6.00039 22.4103 7.04505 23.455C8.08971 24.4996 9.3299 25.3283 10.6948 25.8936C12.0597 26.459 13.5226 26.75 15 26.75C16.4774 26.75 17.9403 26.459 19.3052 25.8936C20.6701 25.3283 21.9103 24.4996 22.955 23.455C23.9996 22.4103 24.8283 21.1701 25.3936 19.8052C25.959 18.4403 26.25 16.9774 26.25 15.5C26.25 14.0226 25.959 12.5597 25.3936 11.1948C24.8283 9.8299 23.9996 8.58971 22.955 7.54505C21.9103 6.50039 20.6701 5.67172 19.3052 5.10636C17.9403 4.54099 16.4774 4.25 15 4.25C13.5226 4.25 12.0597 4.54099 10.6948 5.10636C9.3299 5.67172 8.08971 6.50039 7.04505 7.54505C6.00039 8.58971 5.17172 9.8299 4.60636 11.1948C4.04099 12.5597 3.75 14.0226 3.75 15.5Z" stroke="#CBD5E1" stroke-width="2.5" stroke-linecap="round" stroke-linejoin="round"/>
<path d="M17.5002 12.6872C16.7716 12.0468 15.8242 11.712 14.855 11.7523C13.8858 11.7926 12.9695 12.2049 12.2965 12.9034C11.6245 13.6007 11.249 14.5313 11.249 15.4997C11.249 16.468 11.6245 17.3987 12.2965 18.0959C12.9695 18.7945 13.8858 19.2068 14.855 19.2471C15.8242 19.2874 16.7716 18.9525 17.5002 18.3122" stroke="#CBD5E1" stroke-width="2.5" stroke-linecap="round" stroke-linejoin="round"/>
</svg>
