<svg width="40" height="40" viewBox="0 0 40 40" fill="none" xmlns="http://www.w3.org/2000/svg">
<rect width="40" height="40" rx="20" fill="#F97316"/>
<path d="M18.6663 21.9997L22.1263 19.9997L18.6663 17.9997V21.9997ZM26.373 16.7797C26.4597 17.093 26.5197 17.513 26.5597 18.0463C26.6063 18.5797 26.6263 19.0397 26.6263 19.4397L26.6663 19.9997C26.6663 21.4597 26.5597 22.533 26.373 23.2197C26.2063 23.8197 25.8197 24.2063 25.2197 24.373C24.9063 24.4597 24.333 24.5197 23.453 24.5597C22.5863 24.6063 21.793 24.6263 21.0597 24.6263L19.9997 24.6663C17.2063 24.6663 15.4663 24.5597 14.7797 24.373C14.1797 24.2063 13.793 23.8197 13.6263 23.2197C13.5397 22.9063 13.4797 22.4863 13.4397 21.953C13.393 21.4197 13.373 20.9597 13.373 20.5597L13.333 19.9997C13.333 18.5397 13.4397 17.4663 13.6263 16.7797C13.793 16.1797 14.1797 15.793 14.7797 15.6263C15.093 15.5397 15.6663 15.4797 16.5463 15.4397C17.413 15.393 18.2063 15.373 18.9397 15.373L19.9997 15.333C22.793 15.333 24.533 15.4397 25.2197 15.6263C25.8197 15.793 26.2063 16.1797 26.373 16.7797Z" fill="#FAFAFA"/>
</svg>
